# xmcd
#
# Track frame offsets:
#	150
#	23160
#	50332
#	73366
#
# Disc length: 1338 seconds
#
# Revision: 1
# Processed by: cddbd v1.5PL3 Copyright (c) Steve Scherf et al.
# Submitted via: CDex 1.50Beta5
#
DISCID=33053804
DTITLE=汐音 愛 - I-DOLL 〜Song for eternity〜
DYEAR=1900
DGENRE=
TTITLE0=I-DOLL 〜Song for eternity
TTITLE1=君と夢を信じて
TTITLE2=I-DOLL 〜Song for eternity(Instrumental)
TTITLE3=君と夢を信じて(Instrumental)
EXTD=
EXTT0=
EXTT1=
EXTT2=
EXTT3=
PLAYORDER=
